<svg width="163" height="88" viewBox="0 0 163 88" fill="none" xmlns="http://www.w3.org/2000/svg">
<path opacity="0.6" d="M4.17 1.185C5.43 1.185 6.405 1.61 7.095 2.46C7.785 3.31 8.13 4.605 8.13 6.345C8.13 7.535 7.945 8.565 7.575 9.435C7.205 10.295 6.69 10.96 6.03 11.43C5.37 11.89 4.61 12.12 3.75 12.12C2.12 12.12 1.01 11.34 0.42 9.78L1.995 9.045C2.175 9.535 2.415 9.89 2.715 10.11C3.015 10.33 3.395 10.44 3.855 10.44C4.545 10.44 5.115 10.13 5.565 9.51C6.025 8.89 6.255 7.985 6.255 6.795C5.985 7.195 5.625 7.505 5.175 7.725C4.735 7.945 4.24 8.055 3.69 8.055C3.09 8.055 2.545 7.93 2.055 7.68C1.565 7.42 1.175 7.05 0.885 6.57C0.595 6.08 0.45 5.5 0.45 4.83C0.45 4.14 0.605 3.52 0.915 2.97C1.225 2.42 1.66 1.985 2.22 1.665C2.78 1.345 3.43 1.185 4.17 1.185ZM4.185 2.73C3.625 2.73 3.175 2.92 2.835 3.3C2.505 3.67 2.34 4.125 2.34 4.665C2.34 5.225 2.495 5.675 2.805 6.015C3.125 6.345 3.565 6.51 4.125 6.51C4.675 6.51 5.125 6.33 5.475 5.97C5.835 5.6 6.015 5.14 6.015 4.59C6.015 3.99 5.845 3.53 5.505 3.21C5.165 2.89 4.725 2.73 4.185 2.73ZM13.4941 12.135C12.2841 12.135 11.3291 11.87 10.6291 11.34C9.92914 10.81 9.57914 10.09 9.57914 9.18C9.57914 8.59 9.75914 8.06 10.1191 7.59C10.4791 7.12 10.9491 6.78 11.5291 6.57C11.0091 6.36 10.5991 6.045 10.2991 5.625C9.99914 5.205 9.84914 4.715 9.84914 4.155C9.84914 3.595 10.0041 3.09 10.3141 2.64C10.6341 2.19 11.0691 1.84 11.6191 1.59C12.1691 1.33 12.7941 1.2 13.4941 1.2C14.1941 1.2 14.8191 1.33 15.3691 1.59C15.9191 1.84 16.3491 2.19 16.6591 2.64C16.9791 3.09 17.1391 3.595 17.1391 4.155C17.1391 4.715 16.9891 5.205 16.6891 5.625C16.3891 6.045 15.9791 6.36 15.4591 6.57C16.0391 6.78 16.5091 7.12 16.8691 7.59C17.2291 8.06 17.4091 8.59 17.4091 9.18C17.4091 10.09 17.0591 10.81 16.3591 11.34C15.6591 11.87 14.7041 12.135 13.4941 12.135ZM13.4941 5.88C14.0241 5.88 14.4491 5.74 14.7691 5.46C15.0891 5.18 15.2491 4.81 15.2491 4.35C15.2491 3.86 15.0891 3.47 14.7691 3.18C14.4491 2.89 14.0241 2.745 13.4941 2.745C12.9741 2.745 12.5491 2.895 12.2191 3.195C11.8991 3.485 11.7391 3.87 11.7391 4.35C11.7391 4.81 11.8991 5.18 12.2191 5.46C12.5391 5.74 12.9641 5.88 13.4941 5.88ZM13.4941 10.59C14.1241 10.59 14.6191 10.45 14.9791 10.17C15.3391 9.89 15.5191 9.505 15.5191 9.015C15.5191 8.515 15.3341 8.115 14.9641 7.815C14.5941 7.505 14.1041 7.35 13.4941 7.35C12.8841 7.35 12.3941 7.505 12.0241 7.815C11.6541 8.115 11.4691 8.515 11.4691 9.015C11.4691 9.505 11.6491 9.89 12.0091 10.17C12.3691 10.45 12.8641 10.59 13.4941 10.59ZM21.6933 12H19.7133L24.1383 2.88H19.0683V1.35H26.1033V2.835L21.6933 12ZM35.3723 12V1.35H37.3223V5.76H42.3623V1.35H44.3273V12H42.3623V7.47H37.3223V12H35.3723ZM48.2152 4.425V12H46.3852V4.425H48.2152ZM47.3002 3.225C46.9402 3.225 46.6552 3.115 46.4452 2.895C46.2352 2.675 46.1302 2.41 46.1302 2.1C46.1302 1.79 46.2352 1.525 46.4452 1.305C46.6552 1.085 46.9402 0.975 47.3002 0.975C47.6602 0.975 47.9452 1.085 48.1552 1.305C48.3652 1.525 48.4702 1.79 48.4702 2.1C48.4702 2.41 48.3652 2.675 48.1552 2.895C47.9452 3.115 47.6602 3.225 47.3002 3.225ZM52.3545 12.135C51.6345 12.135 51.0895 11.94 50.7195 11.55C50.3495 11.16 50.1645 10.605 50.1645 9.885V0.9H51.9945V9.735C51.9945 10.275 52.2445 10.545 52.7445 10.545C52.9945 10.545 53.2145 10.485 53.4045 10.365L53.8545 11.7C53.6945 11.82 53.4795 11.92 53.2095 12C52.9395 12.09 52.6545 12.135 52.3545 12.135ZM56.6611 12.135C55.9411 12.135 55.3961 11.94 55.0261 11.55C54.6561 11.16 54.4711 10.605 54.4711 9.885V0.9H56.3011V9.735C56.3011 10.275 56.5511 10.545 57.0511 10.545C57.3011 10.545 57.5211 10.485 57.7111 10.365L58.1611 11.7C58.0011 11.82 57.7861 11.92 57.5161 12C57.2461 12.09 56.9611 12.135 56.6611 12.135ZM62.1527 12.135C61.0027 12.135 60.0927 11.805 59.4227 11.145C58.7527 10.475 58.4177 9.545 58.4177 8.355C58.4177 7.555 58.5827 6.85 58.9127 6.24C59.2427 5.63 59.7027 5.155 60.2927 4.815C60.8827 4.475 61.5627 4.305 62.3327 4.305C62.9727 4.305 63.5327 4.43 64.0127 4.68C64.4927 4.93 64.8827 5.32 65.1827 5.85L63.8777 6.84C63.6877 6.52 63.4677 6.29 63.2177 6.15C62.9777 6.01 62.6827 5.94 62.3327 5.94C61.7427 5.94 61.2577 6.16 60.8777 6.6C60.5077 7.04 60.3227 7.62 60.3227 8.34C60.3227 9.04 60.4877 9.58 60.8177 9.96C61.1577 10.33 61.6427 10.515 62.2727 10.515C62.6027 10.515 62.9077 10.44 63.1877 10.29C63.4777 10.14 63.7177 9.905 63.9077 9.585L65.1827 10.605C64.8427 11.155 64.4127 11.55 63.8927 11.79C63.3727 12.02 62.7927 12.135 62.1527 12.135ZM71.0352 6.195C70.8352 6.125 70.5802 6.09 70.2702 6.09C69.7302 6.09 69.2952 6.29 68.9652 6.69C68.6352 7.08 68.3902 7.71 68.2302 8.58C68.0802 9.44 68.0052 10.58 68.0052 12H66.1902V7.11L66.1752 4.425H68.0052L67.9152 6.54C68.1752 5.73 68.5352 5.155 68.9952 4.815C69.4652 4.475 69.9652 4.305 70.4952 4.305C70.6552 4.305 70.8052 4.315 70.9452 4.335C71.0852 4.355 71.2152 4.385 71.3352 4.425L71.0352 6.195ZM75.5617 12.135C74.7417 12.135 74.0317 11.985 73.4317 11.685C72.8417 11.375 72.3867 10.935 72.0667 10.365C71.7467 9.795 71.5867 9.115 71.5867 8.325C71.5867 7.535 71.7517 6.84 72.0817 6.24C72.4117 5.63 72.8567 5.155 73.4167 4.815C73.9867 4.475 74.6317 4.305 75.3517 4.305C76.5217 4.305 77.3817 4.705 77.9317 5.505C78.4917 6.295 78.6867 7.39 78.5167 8.79H73.4467C73.4867 9.32 73.7017 9.745 74.0917 10.065C74.4817 10.385 75.0167 10.545 75.6967 10.545C76.0167 10.545 76.3367 10.475 76.6567 10.335C76.9867 10.195 77.2667 9.98 77.4967 9.69L78.5617 10.77C78.2217 11.2 77.8067 11.535 77.3167 11.775C76.8367 12.015 76.2517 12.135 75.5617 12.135ZM75.3817 5.685C74.8717 5.685 74.4517 5.845 74.1217 6.165C73.7917 6.485 73.5817 6.915 73.4917 7.455H76.9417C76.9617 6.835 76.8267 6.385 76.5367 6.105C76.2467 5.825 75.8617 5.685 75.3817 5.685ZM82.7462 12.135C81.7062 12.135 80.9112 11.94 80.3612 11.55C79.8112 11.15 79.4912 10.595 79.4012 9.885L80.9462 9.51C81.0062 9.89 81.1812 10.185 81.4712 10.395C81.7612 10.595 82.1762 10.695 82.7162 10.695C83.1562 10.695 83.4862 10.625 83.7062 10.485C83.9362 10.345 84.0512 10.155 84.0512 9.915C84.0512 9.675 83.9262 9.49 83.6762 9.36C83.4362 9.23 83.0612 9.115 82.5512 9.015C81.9812 8.905 81.4912 8.765 81.0812 8.595C80.6812 8.425 80.3712 8.195 80.1512 7.905C79.9412 7.605 79.8362 7.215 79.8362 6.735C79.8362 6.275 79.9662 5.865 80.2262 5.505C80.4862 5.135 80.8412 4.845 81.2912 4.635C81.7512 4.415 82.2762 4.305 82.8662 4.305C83.6562 4.305 84.3012 4.49 84.8012 4.86C85.3112 5.23 85.6162 5.705 85.7162 6.285L84.2012 6.69C84.1312 6.4 83.9812 6.175 83.7512 6.015C83.5212 5.845 83.2112 5.76 82.8212 5.76C82.4312 5.76 82.1312 5.84 81.9212 6C81.7212 6.16 81.6212 6.36 81.6212 6.6C81.6212 6.84 81.7362 7.03 81.9662 7.17C82.2062 7.3 82.6112 7.425 83.1812 7.545C83.7112 7.655 84.1712 7.795 84.5612 7.965C84.9612 8.125 85.2762 8.35 85.5062 8.64C85.7362 8.92 85.8512 9.3 85.8512 9.78C85.8512 10.25 85.7162 10.665 85.4462 11.025C85.1862 11.375 84.8212 11.65 84.3512 11.85C83.8812 12.04 83.3462 12.135 82.7462 12.135ZM90.2299 12.135C89.3199 12.135 88.6099 11.885 88.0999 11.385C87.5999 10.885 87.3549 10.23 87.3649 9.42L87.4249 5.955H86.1349V4.425H87.4549L87.4699 2.865H89.2999L89.2699 4.425H91.7449V5.955H89.2549L89.2099 9.225C89.1999 9.635 89.2999 9.96 89.5099 10.2C89.7299 10.43 90.0549 10.545 90.4849 10.545C90.7149 10.545 90.9299 10.515 91.1299 10.455C91.3299 10.395 91.5399 10.285 91.7599 10.125L92.2999 11.535C92.0699 11.735 91.7749 11.885 91.4149 11.985C91.0549 12.085 90.6599 12.135 90.2299 12.135ZM96.8665 12V1.35H98.8165V10.29H103.556L103.421 12H96.8665ZM111.429 4.455V12H109.569L109.629 10.68C109.359 11.14 109.004 11.5 108.564 11.76C108.134 12.01 107.639 12.135 107.079 12.135C106.419 12.135 105.859 11.985 105.399 11.685C104.939 11.375 104.589 10.95 104.349 10.41C104.109 9.87 103.989 9.25 103.989 8.55C103.989 7.71 104.154 6.975 104.484 6.345C104.814 5.705 105.264 5.205 105.834 4.845C106.414 4.485 107.064 4.305 107.784 4.305C108.264 4.305 108.689 4.41 109.059 4.62C109.429 4.82 109.714 5.09 109.914 5.43L110.094 4.455H111.429ZM107.919 5.925C107.299 5.925 106.804 6.16 106.434 6.63C106.064 7.1 105.879 7.715 105.879 8.475C105.879 9.125 106.019 9.63 106.299 9.99C106.579 10.35 106.964 10.53 107.454 10.53C107.854 10.53 108.214 10.415 108.534 10.185C108.864 9.955 109.124 9.635 109.314 9.225C109.504 8.815 109.599 8.345 109.599 7.815C109.599 7.225 109.449 6.765 109.149 6.435C108.849 6.095 108.439 5.925 107.919 5.925ZM113.372 12V4.425H115.202L115.112 6.33C115.402 5.68 115.797 5.18 116.297 4.83C116.797 4.48 117.367 4.305 118.007 4.305C118.857 4.305 119.497 4.6 119.927 5.19C120.367 5.77 120.582 6.605 120.572 7.695L120.542 12H118.712L118.742 7.845C118.752 7.255 118.657 6.805 118.457 6.495C118.267 6.175 117.957 6.015 117.527 6.015C117.197 6.015 116.892 6.11 116.612 6.3C116.332 6.49 116.087 6.815 115.877 7.275C115.667 7.725 115.502 8.34 115.382 9.12C115.262 9.89 115.197 10.85 115.187 12H113.372ZM126.026 12.135C125.206 12.135 124.496 11.985 123.896 11.685C123.306 11.375 122.851 10.935 122.531 10.365C122.211 9.795 122.051 9.115 122.051 8.325C122.051 7.535 122.216 6.84 122.546 6.24C122.876 5.63 123.321 5.155 123.881 4.815C124.451 4.475 125.096 4.305 125.816 4.305C126.986 4.305 127.846 4.705 128.396 5.505C128.956 6.295 129.151 7.39 128.981 8.79H123.911C123.951 9.32 124.166 9.745 124.556 10.065C124.946 10.385 125.481 10.545 126.161 10.545C126.481 10.545 126.801 10.475 127.121 10.335C127.451 10.195 127.731 9.98 127.961 9.69L129.026 10.77C128.686 11.2 128.271 11.535 127.781 11.775C127.301 12.015 126.716 12.135 126.026 12.135ZM125.846 5.685C125.336 5.685 124.916 5.845 124.586 6.165C124.256 6.485 124.046 6.915 123.956 7.455H127.406C127.426 6.835 127.291 6.385 127.001 6.105C126.711 5.825 126.326 5.685 125.846 5.685ZM1.095 37V26.35H3.045V37H1.095ZM9.98051 31.195C9.78051 31.125 9.52551 31.09 9.21551 31.09C8.67551 31.09 8.24051 31.29 7.91051 31.69C7.58051 32.08 7.33551 32.71 7.17551 33.58C7.02551 34.44 6.95051 35.58 6.95051 37H5.13551V32.11L5.12051 29.425H6.95051L6.86051 31.54C7.12051 30.73 7.48051 30.155 7.94051 29.815C8.41051 29.475 8.91051 29.305 9.44051 29.305C9.60051 29.305 9.75051 29.315 9.89051 29.335C10.0305 29.355 10.1605 29.385 10.2805 29.425L9.98051 31.195ZM16.8741 29.425H18.7041L15.8691 37H13.2591L10.8591 29.425H12.8391L14.6691 35.515L16.8741 29.425ZM21.3353 29.425V37H19.5053V29.425H21.3353ZM20.4203 28.225C20.0603 28.225 19.7753 28.115 19.5653 27.895C19.3553 27.675 19.2503 27.41 19.2503 27.1C19.2503 26.79 19.3553 26.525 19.5653 26.305C19.7753 26.085 20.0603 25.975 20.4203 25.975C20.7803 25.975 21.0653 26.085 21.2753 26.305C21.4853 26.525 21.5903 26.79 21.5903 27.1C21.5903 27.41 21.4853 27.675 21.2753 27.895C21.0653 28.115 20.7803 28.225 20.4203 28.225ZM23.2846 37V29.425H25.1146L25.0246 31.33C25.3146 30.68 25.7096 30.18 26.2096 29.83C26.7096 29.48 27.2796 29.305 27.9196 29.305C28.7696 29.305 29.4096 29.6 29.8396 30.19C30.2796 30.77 30.4946 31.605 30.4846 32.695L30.4546 37H28.6246L28.6546 32.845C28.6646 32.255 28.5696 31.805 28.3696 31.495C28.1796 31.175 27.8696 31.015 27.4396 31.015C27.1096 31.015 26.8046 31.11 26.5246 31.3C26.2446 31.49 25.9996 31.815 25.7896 32.275C25.5796 32.725 25.4146 33.34 25.2946 34.12C25.1746 34.89 25.1096 35.85 25.0996 37H23.2846ZM35.9377 37.135C35.1177 37.135 34.4077 36.985 33.8077 36.685C33.2177 36.375 32.7627 35.935 32.4427 35.365C32.1227 34.795 31.9627 34.115 31.9627 33.325C31.9627 32.535 32.1277 31.84 32.4577 31.24C32.7877 30.63 33.2327 30.155 33.7927 29.815C34.3627 29.475 35.0077 29.305 35.7277 29.305C36.8977 29.305 37.7577 29.705 38.3077 30.505C38.8677 31.295 39.0627 32.39 38.8927 33.79H33.8227C33.8627 34.32 34.0777 34.745 34.4677 35.065C34.8577 35.385 35.3927 35.545 36.0727 35.545C36.3927 35.545 36.7127 35.475 37.0327 35.335C37.3627 35.195 37.6427 34.98 37.8727 34.69L38.9377 35.77C38.5977 36.2 38.1827 36.535 37.6927 36.775C37.2127 37.015 36.6277 37.135 35.9377 37.135ZM35.7577 30.685C35.2477 30.685 34.8277 30.845 34.4977 31.165C34.1677 31.485 33.9577 31.915 33.8677 32.455H37.3177C37.3377 31.835 37.2027 31.385 36.9127 31.105C36.6227 30.825 36.2377 30.685 35.7577 30.685ZM39.8857 39.28C40.0257 38.95 40.1307 38.645 40.2007 38.365C40.2807 38.085 40.3207 37.83 40.3207 37.6C40.3207 37.34 40.2857 37.115 40.2157 36.925C40.1457 36.735 40.0757 36.55 40.0057 36.37C39.9457 36.19 39.9157 35.985 39.9157 35.755C39.9157 35.445 40.0257 35.185 40.2457 34.975C40.4757 34.765 40.7757 34.66 41.1457 34.66C41.5357 34.66 41.8357 34.78 42.0457 35.02C42.2657 35.26 42.3757 35.59 42.3757 36.01C42.3757 36.32 42.3057 36.67 42.1657 37.06C42.0357 37.46 41.8507 37.85 41.6107 38.23C41.3807 38.62 41.1207 38.97 40.8307 39.28H39.8857ZM56.6777 34.93C56.2577 35.64 55.6777 36.185 54.9377 36.565C54.1977 36.945 53.3677 37.135 52.4477 37.135C51.3577 37.135 50.4227 36.925 49.6427 36.505C48.8627 36.085 48.2627 35.485 47.8427 34.705C47.4327 33.915 47.2277 32.975 47.2277 31.885C47.2277 30.755 47.4577 29.765 47.9177 28.915C48.3777 28.065 49.0177 27.4 49.8377 26.92C50.6577 26.44 51.6077 26.2 52.6877 26.2C53.6077 26.2 54.3927 26.375 55.0427 26.725C55.7027 27.075 56.2527 27.605 56.6927 28.315L55.1927 29.395C54.9227 28.895 54.5677 28.53 54.1277 28.3C53.6877 28.07 53.2027 27.955 52.6727 27.955C51.9927 27.955 51.3927 28.12 50.8727 28.45C50.3527 28.78 49.9427 29.24 49.6427 29.83C49.3527 30.41 49.2077 31.085 49.2077 31.855C49.2077 32.965 49.4927 33.83 50.0627 34.45C50.6427 35.07 51.4477 35.38 52.4777 35.38C53.0477 35.38 53.5727 35.25 54.0527 34.99C54.5327 34.73 54.9227 34.335 55.2227 33.805L56.6777 34.93ZM56.3783 37L60.9233 26.35H62.5733L66.9383 37H64.9583L63.9983 34.57H59.3483L58.3583 37H56.3783ZM60.0233 32.935H63.3683L61.7183 28.75L60.0233 32.935ZM10.125 59.93C9.705 60.64 9.125 61.185 8.385 61.565C7.645 61.945 6.815 62.135 5.895 62.135C4.805 62.135 3.87 61.925 3.09 61.505C2.31 61.085 1.71 60.485 1.29 59.705C0.88 58.915 0.675 57.975 0.675 56.885C0.675 55.755 0.905 54.765 1.365 53.915C1.825 53.065 2.465 52.4 3.285 51.92C4.105 51.44 5.055 51.2 6.135 51.2C7.055 51.2 7.84 51.375 8.49 51.725C9.15 52.075 9.7 52.605 10.14 53.315L8.64 54.395C8.37 53.895 8.015 53.53 7.575 53.3C7.135 53.07 6.65 52.955 6.12 52.955C5.44 52.955 4.84 53.12 4.32 53.45C3.8 53.78 3.39 54.24 3.09 54.83C2.8 55.41 2.655 56.085 2.655 56.855C2.655 57.965 2.94 58.83 3.51 59.45C4.09 60.07 4.895 60.38 5.925 60.38C6.495 60.38 7.02 60.25 7.5 59.99C7.98 59.73 8.37 59.335 8.67 58.805L10.125 59.93ZM18.0452 54.455V62H16.1852L16.2452 60.68C15.9752 61.14 15.6202 61.5 15.1802 61.76C14.7502 62.01 14.2552 62.135 13.6952 62.135C13.0352 62.135 12.4752 61.985 12.0152 61.685C11.5552 61.375 11.2052 60.95 10.9652 60.41C10.7252 59.87 10.6052 59.25 10.6052 58.55C10.6052 57.71 10.7702 56.975 11.1002 56.345C11.4302 55.705 11.8802 55.205 12.4502 54.845C13.0302 54.485 13.6802 54.305 14.4002 54.305C14.8802 54.305 15.3052 54.41 15.6752 54.62C16.0452 54.82 16.3302 55.09 16.5302 55.43L16.7102 54.455H18.0452ZM14.5352 55.925C13.9152 55.925 13.4202 56.16 13.0502 56.63C12.6802 57.1 12.4952 57.715 12.4952 58.475C12.4952 59.125 12.6352 59.63 12.9152 59.99C13.1952 60.35 13.5802 60.53 14.0702 60.53C14.4702 60.53 14.8302 60.415 15.1502 60.185C15.4802 59.955 15.7402 59.635 15.9302 59.225C16.1202 58.815 16.2152 58.345 16.2152 57.815C16.2152 57.225 16.0652 56.765 15.7652 56.435C15.4652 56.095 15.0552 55.925 14.5352 55.925ZM22.1787 62.135C21.4587 62.135 20.9137 61.94 20.5437 61.55C20.1737 61.16 19.9887 60.605 19.9887 59.885V50.9H21.8187V59.735C21.8187 60.275 22.0687 60.545 22.5687 60.545C22.8187 60.545 23.0387 60.485 23.2287 60.365L23.6787 61.7C23.5187 61.82 23.3037 61.92 23.0337 62C22.7637 62.09 22.4787 62.135 22.1787 62.135ZM26.1986 54.425V62H24.3686V54.425H26.1986ZM25.2836 53.225C24.9236 53.225 24.6386 53.115 24.4286 52.895C24.2186 52.675 24.1136 52.41 24.1136 52.1C24.1136 51.79 24.2186 51.525 24.4286 51.305C24.6386 51.085 24.9236 50.975 25.2836 50.975C25.6436 50.975 25.9286 51.085 26.1386 51.305C26.3486 51.525 26.4536 51.79 26.4536 52.1C26.4536 52.41 26.3486 52.675 26.1386 52.895C25.9286 53.115 25.6436 53.225 25.2836 53.225ZM28.5229 62V55.955H27.0829V54.425H28.5229V54.02C28.5229 53.35 28.6579 52.775 28.9279 52.295C29.2079 51.805 29.5829 51.425 30.0529 51.155C30.5329 50.885 31.0829 50.75 31.7029 50.75C32.4429 50.75 33.0329 50.935 33.4729 51.305C33.9229 51.665 34.1929 52.21 34.2829 52.94L32.7229 53.12C32.6929 52.86 32.5829 52.66 32.3929 52.52C32.2029 52.37 31.9579 52.295 31.6579 52.295C31.2479 52.295 30.9229 52.43 30.6829 52.7C30.4529 52.97 30.3379 53.355 30.3379 53.855V54.425H32.5879V55.955H30.3679V62H28.5229ZM36.8005 54.305C37.9305 54.305 38.8155 54.645 39.4555 55.325C40.1055 55.995 40.4305 56.905 40.4305 58.055C40.4305 58.835 40.2655 59.535 39.9355 60.155C39.6155 60.765 39.1605 61.25 38.5705 61.61C37.9805 61.96 37.2955 62.135 36.5155 62.135C35.3855 62.135 34.4955 61.8 33.8455 61.13C33.2055 60.46 32.8855 59.545 32.8855 58.385C32.8855 57.605 33.0455 56.91 33.3655 56.3C33.6955 55.68 34.1505 55.195 34.7305 54.845C35.3205 54.485 36.0105 54.305 36.8005 54.305ZM36.5755 60.53C37.1655 60.53 37.6405 60.305 38.0005 59.855C38.3605 59.405 38.5405 58.805 38.5405 58.055C38.5405 57.375 38.3805 56.85 38.0605 56.48C37.7505 56.11 37.3205 55.925 36.7705 55.925C36.1605 55.925 35.6755 56.15 35.3155 56.6C34.9555 57.05 34.7755 57.645 34.7755 58.385C34.7755 59.065 34.9305 59.595 35.2405 59.975C35.5605 60.345 36.0055 60.53 36.5755 60.53ZM46.8799 56.195C46.6799 56.125 46.4249 56.09 46.1149 56.09C45.5749 56.09 45.1399 56.29 44.8099 56.69C44.4799 57.08 44.2349 57.71 44.0749 58.58C43.9249 59.44 43.8499 60.58 43.8499 62H42.0349V57.11L42.0199 54.425H43.8499L43.7599 56.54C44.0199 55.73 44.3799 55.155 44.8399 54.815C45.3099 54.475 45.8099 54.305 46.3399 54.305C46.4999 54.305 46.6499 54.315 46.7899 54.335C46.9299 54.355 47.0599 54.385 47.1799 54.425L46.8799 56.195ZM48.143 62V54.425H49.973L49.883 56.33C50.173 55.68 50.568 55.18 51.068 54.83C51.568 54.48 52.138 54.305 52.778 54.305C53.628 54.305 54.268 54.6 54.698 55.19C55.138 55.77 55.353 56.605 55.343 57.695L55.313 62H53.483L53.513 57.845C53.523 57.255 53.428 56.805 53.228 56.495C53.038 56.175 52.728 56.015 52.298 56.015C51.968 56.015 51.663 56.11 51.383 56.3C51.103 56.49 50.858 56.815 50.648 57.275C50.438 57.725 50.273 58.34 50.153 59.12C50.033 59.89 49.968 60.85 49.958 62H48.143ZM59.0111 54.425V62H57.1811V54.425H59.0111ZM58.0961 53.225C57.7361 53.225 57.4511 53.115 57.2411 52.895C57.0311 52.675 56.9261 52.41 56.9261 52.1C56.9261 51.79 57.0311 51.525 57.2411 51.305C57.4511 51.085 57.7361 50.975 58.0961 50.975C58.4561 50.975 58.7411 51.085 58.9511 51.305C59.1611 51.525 59.2661 51.79 59.2661 52.1C59.2661 52.41 59.1611 52.675 58.9511 52.895C58.7411 53.115 58.4561 53.225 58.0961 53.225ZM68.0404 54.455V62H66.1804L66.2404 60.68C65.9704 61.14 65.6154 61.5 65.1754 61.76C64.7454 62.01 64.2504 62.135 63.6904 62.135C63.0304 62.135 62.4704 61.985 62.0104 61.685C61.5504 61.375 61.2004 60.95 60.9604 60.41C60.7204 59.87 60.6004 59.25 60.6004 58.55C60.6004 57.71 60.7654 56.975 61.0954 56.345C61.4254 55.705 61.8754 55.205 62.4454 54.845C63.0254 54.485 63.6754 54.305 64.3954 54.305C64.8754 54.305 65.3004 54.41 65.6704 54.62C66.0404 54.82 66.3254 55.09 66.5254 55.43L66.7054 54.455H68.0404ZM64.5304 55.925C63.9104 55.925 63.4154 56.16 63.0454 56.63C62.6754 57.1 62.4904 57.715 62.4904 58.475C62.4904 59.125 62.6304 59.63 62.9104 59.99C63.1904 60.35 63.5754 60.53 64.0654 60.53C64.4654 60.53 64.8254 60.415 65.1454 60.185C65.4754 59.955 65.7354 59.635 65.9254 59.225C66.1154 58.815 66.2104 58.345 66.2104 57.815C66.2104 57.225 66.0604 56.765 65.7604 56.435C65.4604 56.095 65.0504 55.925 64.5304 55.925ZM76.8263 51.185C78.0863 51.185 79.0613 51.61 79.7513 52.46C80.4413 53.31 80.7863 54.605 80.7863 56.345C80.7863 57.535 80.6013 58.565 80.2312 59.435C79.8613 60.295 79.3463 60.96 78.6863 61.43C78.0263 61.89 77.2663 62.12 76.4062 62.12C74.7763 62.12 73.6663 61.34 73.0763 59.78L74.6513 59.045C74.8313 59.535 75.0713 59.89 75.3713 60.11C75.6713 60.33 76.0513 60.44 76.5112 60.44C77.2013 60.44 77.7713 60.13 78.2213 59.51C78.6813 58.89 78.9113 57.985 78.9113 56.795C78.6413 57.195 78.2813 57.505 77.8313 57.725C77.3913 57.945 76.8963 58.055 76.3463 58.055C75.7463 58.055 75.2013 57.93 74.7113 57.68C74.2213 57.42 73.8313 57.05 73.5413 56.57C73.2513 56.08 73.1063 55.5 73.1063 54.83C73.1063 54.14 73.2613 53.52 73.5713 52.97C73.8813 52.42 74.3163 51.985 74.8763 51.665C75.4363 51.345 76.0863 51.185 76.8263 51.185ZM76.8413 52.73C76.2813 52.73 75.8313 52.92 75.4913 53.3C75.1613 53.67 74.9963 54.125 74.9963 54.665C74.9963 55.225 75.1513 55.675 75.4613 56.015C75.7813 56.345 76.2213 56.51 76.7813 56.51C77.3313 56.51 77.7813 56.33 78.1313 55.97C78.4913 55.6 78.6713 55.14 78.6713 54.59C78.6713 53.99 78.5013 53.53 78.1613 53.21C77.8213 52.89 77.3813 52.73 76.8413 52.73ZM82.8054 62V60.725C83.9754 59.835 84.9054 59.015 85.5954 58.265C86.2954 57.505 86.7954 56.81 87.0954 56.18C87.4054 55.55 87.5604 54.98 87.5604 54.47C87.5604 53.97 87.4154 53.58 87.1254 53.3C86.8454 53.02 86.4654 52.88 85.9854 52.88C85.4454 52.88 84.9954 53.03 84.6354 53.33C84.2854 53.63 84.0204 54.05 83.8404 54.59L82.4454 53.855C82.6854 53.075 83.1354 52.44 83.7954 51.95C84.4554 51.45 85.2454 51.2 86.1654 51.2C86.8254 51.2 87.4004 51.325 87.8904 51.575C88.3804 51.825 88.7604 52.18 89.0304 52.64C89.3104 53.1 89.4504 53.645 89.4504 54.275C89.4504 55.245 89.1304 56.235 88.4904 57.245C87.8504 58.255 86.7654 59.33 85.2354 60.47H89.7204V62H82.8054ZM94.3495 62H92.3695L96.7945 52.88H91.7245V51.35H98.7595V52.835L94.3495 62ZM101.229 62V60.47H103.629V53.84L101.769 55.115L100.869 53.78L104.454 51.35H105.519V60.47H107.784V62H101.229ZM113.958 62V59.255H109.203V57.95L114.483 51.32H115.788V57.74H117.288V59.255H115.788V62H113.958ZM111.168 57.74H113.958V54.215L111.168 57.74ZM10.125 84.93C9.705 85.64 9.125 86.185 8.385 86.565C7.645 86.945 6.815 87.135 5.895 87.135C4.805 87.135 3.87 86.925 3.09 86.505C2.31 86.085 1.71 85.485 1.29 84.705C0.88 83.915 0.675 82.975 0.675 81.885C0.675 80.755 0.905 79.765 1.365 78.915C1.825 78.065 2.465 77.4 3.285 76.92C4.105 76.44 5.055 76.2 6.135 76.2C7.055 76.2 7.84 76.375 8.49 76.725C9.15 77.075 9.7 77.605 10.14 78.315L8.64 79.395C8.37 78.895 8.015 78.53 7.575 78.3C7.135 78.07 6.65 77.955 6.12 77.955C5.44 77.955 4.84 78.12 4.32 78.45C3.8 78.78 3.39 79.24 3.09 79.83C2.8 80.41 2.655 81.085 2.655 81.855C2.655 82.965 2.94 83.83 3.51 84.45C4.09 85.07 4.895 85.38 5.925 85.38C6.495 85.38 7.02 85.25 7.5 84.99C7.98 84.73 8.37 84.335 8.67 83.805L10.125 84.93ZM18.0452 79.455V87H16.1852L16.2452 85.68C15.9752 86.14 15.6202 86.5 15.1802 86.76C14.7502 87.01 14.2552 87.135 13.6952 87.135C13.0352 87.135 12.4752 86.985 12.0152 86.685C11.5552 86.375 11.2052 85.95 10.9652 85.41C10.7252 84.87 10.6052 84.25 10.6052 83.55C10.6052 82.71 10.7702 81.975 11.1002 81.345C11.4302 80.705 11.8802 80.205 12.4502 79.845C13.0302 79.485 13.6802 79.305 14.4002 79.305C14.8802 79.305 15.3052 79.41 15.6752 79.62C16.0452 79.82 16.3302 80.09 16.5302 80.43L16.7102 79.455H18.0452ZM14.5352 80.925C13.9152 80.925 13.4202 81.16 13.0502 81.63C12.6802 82.1 12.4952 82.715 12.4952 83.475C12.4952 84.125 12.6352 84.63 12.9152 84.99C13.1952 85.35 13.5802 85.53 14.0702 85.53C14.4702 85.53 14.8302 85.415 15.1502 85.185C15.4802 84.955 15.7402 84.635 15.9302 84.225C16.1202 83.815 16.2152 83.345 16.2152 82.815C16.2152 82.225 16.0652 81.765 15.7652 81.435C15.4652 81.095 15.0552 80.925 14.5352 80.925ZM22.1787 87.135C21.4587 87.135 20.9137 86.94 20.5437 86.55C20.1737 86.16 19.9887 85.605 19.9887 84.885V75.9H21.8187V84.735C21.8187 85.275 22.0687 85.545 22.5687 85.545C22.8187 85.545 23.0387 85.485 23.2287 85.365L23.6787 86.7C23.5187 86.82 23.3037 86.92 23.0337 87C22.7637 87.09 22.4787 87.135 22.1787 87.135ZM26.4853 87.135C25.7653 87.135 25.2203 86.94 24.8503 86.55C24.4803 86.16 24.2953 85.605 24.2953 84.885V75.9H26.1253V84.735C26.1253 85.275 26.3753 85.545 26.8753 85.545C27.1253 85.545 27.3453 85.485 27.5353 85.365L27.9853 86.7C27.8253 86.82 27.6103 86.92 27.3403 87C27.0703 87.09 26.7853 87.135 26.4853 87.135ZM39.5227 76.35H41.4577L41.4727 82.02C41.4827 83.08 41.3077 83.995 40.9477 84.765C40.5977 85.525 40.0827 86.11 39.4027 86.52C38.7327 86.93 37.9227 87.135 36.9727 87.135C35.4527 87.135 34.3077 86.755 33.5377 85.995C32.7777 85.225 32.3977 84.055 32.3977 82.485V76.35H34.3477V82.335C34.3477 83.405 34.5627 84.18 34.9927 84.66C35.4327 85.14 36.0827 85.38 36.9427 85.38C37.8127 85.38 38.4627 85.1 38.8927 84.54C39.3327 83.98 39.5477 83.11 39.5377 81.93L39.5227 76.35ZM46.1544 87.135C45.1144 87.135 44.3194 86.94 43.7694 86.55C43.2194 86.15 42.8994 85.595 42.8094 84.885L44.3544 84.51C44.4144 84.89 44.5894 85.185 44.8794 85.395C45.1694 85.595 45.5844 85.695 46.1244 85.695C46.5644 85.695 46.8944 85.625 47.1144 85.485C47.3444 85.345 47.4594 85.155 47.4594 84.915C47.4594 84.675 47.3344 84.49 47.0844 84.36C46.8444 84.23 46.4694 84.115 45.9594 84.015C45.3894 83.905 44.8994 83.765 44.4894 83.595C44.0894 83.425 43.7794 83.195 43.5594 82.905C43.3494 82.605 43.2444 82.215 43.2444 81.735C43.2444 81.275 43.3744 80.865 43.6344 80.505C43.8944 80.135 44.2494 79.845 44.6994 79.635C45.1594 79.415 45.6844 79.305 46.2744 79.305C47.0644 79.305 47.7094 79.49 48.2094 79.86C48.7194 80.23 49.0244 80.705 49.1244 81.285L47.6094 81.69C47.5394 81.4 47.3894 81.175 47.1594 81.015C46.9294 80.845 46.6194 80.76 46.2294 80.76C45.8394 80.76 45.5394 80.84 45.3294 81C45.1294 81.16 45.0294 81.36 45.0294 81.6C45.0294 81.84 45.1444 82.03 45.3744 82.17C45.6144 82.3 46.0194 82.425 46.5894 82.545C47.1194 82.655 47.5794 82.795 47.9694 82.965C48.3694 83.125 48.6844 83.35 48.9144 83.64C49.1444 83.92 49.2594 84.3 49.2594 84.78C49.2594 85.25 49.1244 85.665 48.8544 86.025C48.5944 86.375 48.2294 86.65 47.7594 86.85C47.2894 87.04 46.7544 87.135 46.1544 87.135ZM55.0321 87.135C54.6421 87.135 54.3321 87.015 54.1021 86.775C53.8721 86.535 53.7571 86.24 53.7571 85.89C53.7571 85.54 53.8721 85.245 54.1021 85.005C54.3321 84.765 54.6421 84.645 55.0321 84.645C55.4221 84.645 55.7321 84.765 55.9621 85.005C56.1921 85.245 56.3071 85.54 56.3071 85.89C56.3071 86.24 56.1921 86.535 55.9621 86.775C55.7321 87.015 55.4221 87.135 55.0321 87.135ZM55.0321 81.795C54.6421 81.795 54.3321 81.675 54.1021 81.435C53.8721 81.195 53.7571 80.9 53.7571 80.55C53.7571 80.2 53.8721 79.905 54.1021 79.665C54.3321 79.425 54.6421 79.305 55.0321 79.305C55.4221 79.305 55.7321 79.425 55.9621 79.665C56.1921 79.905 56.3071 80.2 56.3071 80.55C56.3071 80.9 56.1921 81.195 55.9621 81.435C55.7321 81.675 55.4221 81.795 55.0321 81.795ZM64.6241 76.185C65.8841 76.185 66.8591 76.61 67.5491 77.46C68.2391 78.31 68.5841 79.605 68.5841 81.345C68.5841 82.535 68.3991 83.565 68.0291 84.435C67.6591 85.295 67.1441 85.96 66.4841 86.43C65.8241 86.89 65.0641 87.12 64.2041 87.12C62.5741 87.12 61.4641 86.34 60.8741 84.78L62.4491 84.045C62.6291 84.535 62.8691 84.89 63.1691 85.11C63.4691 85.33 63.8491 85.44 64.3091 85.44C64.9991 85.44 65.5691 85.13 66.0191 84.51C66.4791 83.89 66.7091 82.985 66.7091 81.795C66.4391 82.195 66.0791 82.505 65.6291 82.725C65.1891 82.945 64.6941 83.055 64.1441 83.055C63.5441 83.055 62.9991 82.93 62.5091 82.68C62.0191 82.42 61.6291 82.05 61.3391 81.57C61.0491 81.08 60.9041 80.5 60.9041 79.83C60.9041 79.14 61.0591 78.52 61.3691 77.97C61.6791 77.42 62.1141 76.985 62.6741 76.665C63.2341 76.345 63.8841 76.185 64.6241 76.185ZM64.6391 77.73C64.0791 77.73 63.6291 77.92 63.2891 78.3C62.9591 78.67 62.7941 79.125 62.7941 79.665C62.7941 80.225 62.9491 80.675 63.2591 81.015C63.5791 81.345 64.0191 81.51 64.5791 81.51C65.1291 81.51 65.5791 81.33 65.9291 80.97C66.2891 80.6 66.4691 80.14 66.4691 79.59C66.4691 78.99 66.2991 78.53 65.9591 78.21C65.6191 77.89 65.1791 77.73 64.6391 77.73ZM74.7732 87V84.255H70.0182V82.95L75.2982 76.32H76.6032V82.74H78.1032V84.255H76.6032V87H74.7732ZM71.9832 82.74H74.7732V79.215L71.9832 82.74ZM82.6124 76.185C83.8724 76.185 84.8474 76.61 85.5374 77.46C86.2274 78.31 86.5724 79.605 86.5724 81.345C86.5724 82.535 86.3874 83.565 86.0174 84.435C85.6474 85.295 85.1324 85.96 84.4724 86.43C83.8124 86.89 83.0524 87.12 82.1924 87.12C80.5624 87.12 79.4524 86.34 78.8624 84.78L80.4374 84.045C80.6174 84.535 80.8574 84.89 81.1574 85.11C81.4574 85.33 81.8374 85.44 82.2974 85.44C82.9874 85.44 83.5574 85.13 84.0074 84.51C84.4674 83.89 84.6974 82.985 84.6974 81.795C84.4274 82.195 84.0674 82.505 83.6174 82.725C83.1774 82.945 82.6824 83.055 82.1324 83.055C81.5324 83.055 80.9874 82.93 80.4974 82.68C80.0074 82.42 79.6174 82.05 79.3274 81.57C79.0374 81.08 78.8924 80.5 78.8924 79.83C78.8924 79.14 79.0474 78.52 79.3574 77.97C79.6674 77.42 80.1024 76.985 80.6624 76.665C81.2224 76.345 81.8724 76.185 82.6124 76.185ZM82.6274 77.73C82.0674 77.73 81.6174 77.92 81.2774 78.3C80.9474 78.67 80.7824 79.125 80.7824 79.665C80.7824 80.225 80.9374 80.675 81.2474 81.015C81.5674 81.345 82.0074 81.51 82.5674 81.51C83.1174 81.51 83.5674 81.33 83.9174 80.97C84.2774 80.6 84.4574 80.14 84.4574 79.59C84.4574 78.99 84.2874 78.53 83.9474 78.21C83.6074 77.89 83.1674 77.73 82.6274 77.73ZM88.3365 83.985V82.335H92.8215V83.985H88.3365ZM98.2207 87.135C97.0107 87.135 96.0557 86.87 95.3557 86.34C94.6557 85.81 94.3057 85.09 94.3057 84.18C94.3057 83.59 94.4857 83.06 94.8457 82.59C95.2057 82.12 95.6757 81.78 96.2557 81.57C95.7357 81.36 95.3257 81.045 95.0257 80.625C94.7257 80.205 94.5757 79.715 94.5757 79.155C94.5757 78.595 94.7307 78.09 95.0407 77.64C95.3607 77.19 95.7957 76.84 96.3457 76.59C96.8957 76.33 97.5207 76.2 98.2207 76.2C98.9207 76.2 99.5457 76.33 100.096 76.59C100.646 76.84 101.076 77.19 101.386 77.64C101.706 78.09 101.866 78.595 101.866 79.155C101.866 79.715 101.716 80.205 101.416 80.625C101.116 81.045 100.706 81.36 100.186 81.57C100.766 81.78 101.236 82.12 101.596 82.59C101.956 83.06 102.136 83.59 102.136 84.18C102.136 85.09 101.786 85.81 101.086 86.34C100.386 86.87 99.4307 87.135 98.2207 87.135ZM98.2207 80.88C98.7507 80.88 99.1757 80.74 99.4957 80.46C99.8157 80.18 99.9757 79.81 99.9757 79.35C99.9757 78.86 99.8157 78.47 99.4957 78.18C99.1757 77.89 98.7507 77.745 98.2207 77.745C97.7007 77.745 97.2757 77.895 96.9457 78.195C96.6257 78.485 96.4657 78.87 96.4657 79.35C96.4657 79.81 96.6257 80.18 96.9457 80.46C97.2657 80.74 97.6907 80.88 98.2207 80.88ZM98.2207 85.59C98.8507 85.59 99.3457 85.45 99.7057 85.17C100.066 84.89 100.246 84.505 100.246 84.015C100.246 83.515 100.061 83.115 99.6907 82.815C99.3207 82.505 98.8307 82.35 98.2207 82.35C97.6107 82.35 97.1207 82.505 96.7507 82.815C96.3807 83.115 96.1957 83.515 96.1957 84.015C96.1957 84.505 96.3757 84.89 96.7357 85.17C97.0957 85.45 97.5907 85.59 98.2207 85.59ZM106.585 87.135C106.065 87.135 105.53 87.075 104.98 86.955C104.43 86.835 103.985 86.655 103.645 86.415L104.125 84.78C104.455 84.99 104.835 85.155 105.265 85.275C105.695 85.395 106.175 85.455 106.705 85.455C107.385 85.455 107.91 85.32 108.28 85.05C108.66 84.77 108.85 84.38 108.85 83.88C108.85 83.37 108.66 82.99 108.28 82.74C107.91 82.49 107.4 82.365 106.75 82.365H106.105V80.835H106.585C107.285 80.835 107.8 80.69 108.13 80.4C108.47 80.1 108.64 79.71 108.64 79.23C108.64 78.83 108.5 78.505 108.22 78.255C107.95 78.005 107.56 77.88 107.05 77.88C106.52 77.88 106.075 78.03 105.715 78.33C105.355 78.63 105.085 79.05 104.905 79.59L103.51 78.855C103.75 78.075 104.2 77.44 104.86 76.95C105.52 76.45 106.31 76.2 107.23 76.2C107.91 76.2 108.495 76.32 108.985 76.56C109.475 76.8 109.85 77.135 110.11 77.565C110.38 77.995 110.515 78.49 110.515 79.05C110.515 79.59 110.37 80.085 110.08 80.535C109.79 80.975 109.37 81.3 108.82 81.51C109.43 81.68 109.9 81.975 110.23 82.395C110.57 82.805 110.74 83.325 110.74 83.955C110.74 84.585 110.57 85.14 110.23 85.62C109.89 86.1 109.41 86.475 108.79 86.745C108.17 87.005 107.435 87.135 106.585 87.135ZM115.579 87.135C115.059 87.135 114.524 87.075 113.974 86.955C113.424 86.835 112.979 86.655 112.639 86.415L113.119 84.78C113.449 84.99 113.829 85.155 114.259 85.275C114.689 85.395 115.169 85.455 115.699 85.455C116.379 85.455 116.904 85.32 117.274 85.05C117.654 84.77 117.844 84.38 117.844 83.88C117.844 83.37 117.654 82.99 117.274 82.74C116.904 82.49 116.394 82.365 115.744 82.365H115.099V80.835H115.579C116.279 80.835 116.794 80.69 117.124 80.4C117.464 80.1 117.634 79.71 117.634 79.23C117.634 78.83 117.494 78.505 117.214 78.255C116.944 78.005 116.554 77.88 116.044 77.88C115.514 77.88 115.069 78.03 114.709 78.33C114.349 78.63 114.079 79.05 113.899 79.59L112.504 78.855C112.744 78.075 113.194 77.44 113.854 76.95C114.514 76.45 115.304 76.2 116.224 76.2C116.904 76.2 117.489 76.32 117.979 76.56C118.469 76.8 118.844 77.135 119.104 77.565C119.374 77.995 119.509 78.49 119.509 79.05C119.509 79.59 119.364 80.085 119.074 80.535C118.784 80.975 118.364 81.3 117.814 81.51C118.424 81.68 118.894 81.975 119.224 82.395C119.564 82.805 119.734 83.325 119.734 83.955C119.734 84.585 119.564 85.14 119.224 85.62C118.884 86.1 118.404 86.475 117.784 86.745C117.164 87.005 116.429 87.135 115.579 87.135ZM121.603 83.985V82.335H126.088V83.985H121.603ZM130.692 87H128.712L133.137 77.88H128.067V76.35H135.102V77.835L130.692 87ZM141.306 87V84.255H136.551V82.95L141.831 76.32H143.136V82.74H144.636V84.255H143.136V87H141.306ZM138.516 82.74H141.306V79.215L138.516 82.74ZM148.846 87.135C148.326 87.135 147.791 87.075 147.241 86.955C146.691 86.835 146.246 86.655 145.906 86.415L146.386 84.78C146.716 84.99 147.096 85.155 147.526 85.275C147.956 85.395 148.436 85.455 148.966 85.455C149.646 85.455 150.171 85.32 150.541 85.05C150.921 84.77 151.111 84.38 151.111 83.88C151.111 83.37 150.921 82.99 150.541 82.74C150.171 82.49 149.661 82.365 149.011 82.365H148.366V80.835H148.846C149.546 80.835 150.061 80.69 150.391 80.4C150.731 80.1 150.901 79.71 150.901 79.23C150.901 78.83 150.761 78.505 150.481 78.255C150.211 78.005 149.821 77.88 149.311 77.88C148.781 77.88 148.336 78.03 147.976 78.33C147.616 78.63 147.346 79.05 147.166 79.59L145.771 78.855C146.011 78.075 146.461 77.44 147.121 76.95C147.781 76.45 148.571 76.2 149.491 76.2C150.171 76.2 150.756 76.32 151.246 76.56C151.736 76.8 152.111 77.135 152.371 77.565C152.641 77.995 152.776 78.49 152.776 79.05C152.776 79.59 152.631 80.085 152.341 80.535C152.051 80.975 151.631 81.3 151.081 81.51C151.691 81.68 152.161 81.975 152.491 82.395C152.831 82.805 153.001 83.325 153.001 83.955C153.001 84.585 152.831 85.14 152.491 85.62C152.151 86.1 151.671 86.475 151.051 86.745C150.431 87.005 149.696 87.135 148.846 87.135ZM155.125 87V85.725C156.295 84.835 157.225 84.015 157.915 83.265C158.615 82.505 159.115 81.81 159.415 81.18C159.725 80.55 159.88 79.98 159.88 79.47C159.88 78.97 159.735 78.58 159.445 78.3C159.165 78.02 158.785 77.88 158.305 77.88C157.765 77.88 157.315 78.03 156.955 78.33C156.605 78.63 156.34 79.05 156.16 79.59L154.765 78.855C155.005 78.075 155.455 77.44 156.115 76.95C156.775 76.45 157.565 76.2 158.485 76.2C159.145 76.2 159.72 76.325 160.21 76.575C160.7 76.825 161.08 77.18 161.35 77.64C161.63 78.1 161.77 78.645 161.77 79.275C161.77 80.245 161.45 81.235 160.81 82.245C160.17 83.255 159.085 84.33 157.555 85.47H162.04V87H155.125Z" fill="white"/>
</svg>
